<svg width="20" height="20" viewBox="0 0 20 20" fill="none" xmlns="http://www.w3.org/2000/svg">
<path d="M7.5 9.375C7.5 9.20924 7.43415 9.05027 7.31694 8.93306C7.19973 8.81585 7.04076 8.75 6.875 8.75H5.625C5.45924 8.75 5.30027 8.81585 5.18306 8.93306C5.06585 9.05027 5 9.20924 5 9.375V10.625C5 10.7908 5.06585 10.9497 5.18306 11.0669C5.30027 11.1842 5.45924 11.25 5.625 11.25H6.875C7.04076 11.25 7.19973 11.1842 7.31694 11.0669C7.43415 10.9497 7.5 10.7908 7.5 10.625V9.375ZM7.5 13.125C7.5 12.9592 7.43415 12.8003 7.31694 12.6831C7.19973 12.5658 7.04076 12.5 6.875 12.5H5.625C5.45924 12.5 5.30027 12.5658 5.18306 12.6831C5.06585 12.8003 5 12.9592 5 13.125V14.375C5 14.5408 5.06585 14.6997 5.18306 14.8169C5.30027 14.9342 5.45924 15 5.625 15H6.875C7.04076 15 7.19973 14.9342 7.31694 14.8169C7.43415 14.6997 7.5 14.5408 7.5 14.375V13.125ZM9.375 8.75H10.625C10.7908 8.75 10.9497 8.81585 11.0669 8.93306C11.1842 9.05027 11.25 9.20924 11.25 9.375V10.625C11.25 10.7908 11.1842 10.9497 11.0669 11.0669C10.9497 11.1842 10.7908 11.25 10.625 11.25H9.375C9.20924 11.25 9.05027 11.1842 8.93306 11.0669C8.81585 10.9497 8.75 10.7908 8.75 10.625V9.375C8.75 9.20924 8.81585 9.05027 8.93306 8.93306C9.05027 8.81585 9.20924 8.75 9.375 8.75ZM10.625 12.5H9.375C9.20924 12.5 9.05027 12.5658 8.93306 12.6831C8.81585 12.8003 8.75 12.9592 8.75 13.125V14.375C8.75 14.5408 8.81585 14.6997 8.93306 14.8169C9.05027 14.9342 9.20924 15 9.375 15H10.625C10.7908 15 10.9497 14.9342 11.0669 14.8169C11.1842 14.6997 11.25 14.5408 11.25 14.375V13.125C11.25 12.9592 11.1842 12.8003 11.0669 12.6831C10.9497 12.5658 10.7908 12.5 10.625 12.5ZM12.5 9.375C12.5 9.20924 12.5658 9.05027 12.6831 8.93306C12.8003 8.81585 12.9592 8.75 13.125 8.75H14.375C14.5408 8.75 14.6997 8.81585 14.8169 8.93306C14.9342 9.05027 15 9.20924 15 9.375V10.625C15 10.7908 14.9342 10.9497 14.8169 11.0669C14.6997 11.1842 14.5408 11.25 14.375 11.25H13.125C12.9592 11.25 12.8003 11.1842 12.6831 11.0669C12.5658 10.9497 12.5 10.7908 12.5 10.625V9.375Z" fill="#06ACED"/>
<path fill-rule="evenodd" clip-rule="evenodd" d="M5.625 0C5.79076 0 5.94973 0.065848 6.06694 0.183058C6.18415 0.300269 6.25 0.45924 6.25 0.625V1.25H13.75V0.625C13.75 0.45924 13.8158 0.300269 13.9331 0.183058C14.0503 0.065848 14.2092 0 14.375 0C14.5408 0 14.6997 0.065848 14.8169 0.183058C14.9342 0.300269 15 0.45924 15 0.625V1.25C17.075 1.25 18.75 2.925 18.75 5V15C18.75 17.075 17.075 18.75 15 18.75H5C2.925 18.75 1.25 17.075 1.25 15V5C1.25 2.925 2.925 1.25 5 1.25V0.625C5 0.45924 5.06585 0.300269 5.18306 0.183058C5.30027 0.065848 5.45924 0 5.625 0ZM17.5 5V6.25H2.5V5C2.5 3.625 3.61875 2.5 5 2.5V3.125C5 3.29076 5.06585 3.44973 5.18306 3.56694C5.30027 3.68415 5.45924 3.75 5.625 3.75C5.79076 3.75 5.94973 3.68415 6.06694 3.56694C6.18415 3.44973 6.25 3.29076 6.25 3.125V2.5H13.75V3.125C13.75 3.29076 13.8158 3.44973 13.9331 3.56694C14.0503 3.68415 14.2092 3.75 14.375 3.75C14.5408 3.75 14.6997 3.68415 14.8169 3.56694C14.9342 3.44973 15 3.29076 15 3.125V2.5C16.375 2.5 17.5 3.61875 17.5 5ZM2.5 15V7.5H17.5V15C17.5 16.375 16.3813 17.5 15 17.5H5C3.625 17.5 2.5 16.3813 2.5 15Z" fill="#06ACED"/>
</svg>
