<svg width="28" height="28" viewBox="0 0 28 28" fill="none" xmlns="http://www.w3.org/2000/svg">
<path fill-rule="evenodd" clip-rule="evenodd" d="M27.4692 3.09082C27.6374 2.9229 27.7708 2.72351 27.8618 2.50403C27.9529 2.28456 27.9999 2.04929 28 1.81167C28.0001 1.57405 27.9535 1.33873 27.8627 1.11914C27.7719 0.899554 27.6387 0.7 27.4708 0.531873C27.3029 0.363747 27.1035 0.230342 26.884 0.139274C26.6645 0.0482057 26.4293 0.00125825 26.1917 0.00111221C25.954 0.000966157 25.7187 0.0476243 25.4991 0.138423C25.2795 0.229221 25.08 0.362381 24.9119 0.530301L13.9998 11.4424L3.09082 0.530301C2.75128 0.190755 2.29075 -3.5777e-09 1.81056 0C1.33037 3.5777e-09 0.869847 0.190755 0.530301 0.530301C0.190755 0.869847 3.5777e-09 1.33037 0 1.81056C-3.5777e-09 2.29075 0.190755 2.75127 0.530301 3.09082L11.4424 13.9998L0.530301 24.9087C0.362175 25.0768 0.22881 25.2764 0.13782 25.4961C0.0468313 25.7158 0 25.9512 0 26.189C0 26.4267 0.0468313 26.6622 0.13782 26.8818C0.22881 27.1015 0.362175 27.3011 0.530301 27.4692C0.869847 27.8088 1.33037 27.9995 1.81056 27.9995C2.04833 27.9995 2.28377 27.9527 2.50343 27.8617C2.7231 27.7707 2.92269 27.6374 3.09082 27.4692L13.9998 16.5571L24.9119 27.4692C25.2514 27.8084 25.7118 27.9987 26.1917 27.9984C26.6716 27.9981 27.1317 27.8072 27.4708 27.4677C27.8099 27.1281 28.0003 26.6678 28 26.1879C27.9997 25.708 27.8088 25.2478 27.4692 24.9087L16.5571 13.9998L27.4692 3.09082Z" fill="black"/>
</svg>
