<svg width="58" height="69" viewBox="0 0 58 69" fill="none" xmlns="http://www.w3.org/2000/svg">
<g filter="url(#filter0_f_1_4)">
<path d="M29.51 57.523C29.5041 57.6516 29.4488 57.7729 29.3557 57.8618C29.2625 57.9506 29.1387 58.0001 29.01 58C28.72 58 28.5 57.79 28.49 57.523C28.345 54.355 26.734 52.306 23.658 51.376C13.53 48.968 6 39.863 6 29C6 16.297 16.297 6 29 6C41.703 6 52 16.297 52 29C52 39.863 44.47 48.968 34.342 51.376C31.266 52.306 29.655 54.356 29.512 57.523H29.51Z" fill="#FF3333"/>
</g>
<path d="M29.51 57.523C29.5041 57.6516 29.4488 57.7729 29.3557 57.8618C29.2625 57.9506 29.1387 58.0001 29.01 58C28.72 58 28.5 57.79 28.49 57.523C28.345 54.355 26.734 52.306 23.658 51.376C13.53 48.968 6 39.863 6 29C6 16.297 16.297 6 29 6C41.703 6 52 16.297 52 29C52 39.863 44.47 48.968 34.342 51.376C31.266 52.306 29.655 54.356 29.512 57.523H29.51Z" fill="#FF3333"/>
<path d="M29 69C26.79 69 25 67.21 25 65C25 62.79 26.79 61 29 61C31.21 61 33 62.79 33 65C33 67.21 31.21 69 29 69Z" fill="white"/>
<path fill-rule="evenodd" clip-rule="evenodd" d="M29 67C29.2663 67.006 29.5312 66.9588 29.779 66.861C30.0268 66.7633 30.2526 66.617 30.4432 66.4308C30.6337 66.2446 30.7851 66.0222 30.8885 65.7767C30.9919 65.5311 31.0451 65.2674 31.0452 65.001C31.0453 64.7346 30.9921 64.4709 30.8889 64.2253C30.7856 63.9797 30.6343 63.7572 30.4439 63.5709C30.2535 63.3846 30.0277 63.2382 29.78 63.1404C29.5322 63.0425 29.2673 62.9951 29.001 63.001C28.4784 63.0126 27.9812 63.2282 27.6156 63.6018C27.2501 63.9755 27.0453 64.4773 27.0452 65C27.0451 65.5227 27.2496 66.0247 27.6149 66.3985C27.9803 66.7723 28.4774 66.9882 29 67Z" fill="#FF3333"/>
<path fill-rule="evenodd" clip-rule="evenodd" d="M28 35.2V40H39.4C39.4788 40 39.5568 39.9845 39.6296 39.9543C39.7024 39.9242 39.7685 39.88 39.8243 39.8243C39.88 39.7685 39.9242 39.7024 39.9543 39.6296C39.9845 39.5568 40 39.4788 40 39.4V25.6C40 25.5212 39.9845 25.4432 39.9543 25.3704C39.9242 25.2976 39.88 25.2315 39.8243 25.1757C39.7685 25.12 39.7024 25.0758 39.6296 25.0457C39.5568 25.0155 39.4788 25 39.4 25H34.446L34.288 27H38V28H34.21L34.051 30H38V31H33.972L33.599 35.715C33.5966 35.7549 33.5863 35.7939 33.5687 35.8299C33.5512 35.8658 33.5267 35.8978 33.4966 35.9242C33.4666 35.9506 33.4317 35.9708 33.3938 35.9837C33.3559 35.9965 33.3159 36.0017 33.276 35.999C33.1996 35.9915 33.1289 35.9555 33.0778 35.8983C33.0266 35.8411 32.9989 35.7667 33 35.69V19.4C33 19.2939 32.9579 19.1922 32.8828 19.1172C32.8078 19.0421 32.7061 19 32.6 19H32V18.4C32 18.2939 31.9579 18.1922 31.8828 18.1172C31.8078 18.0421 31.7061 18 31.6 18H21.4C21.2939 18 21.1922 18.0421 21.1172 18.1172C21.0421 18.1922 21 18.2939 21 18.4V19H20.4C20.2939 19 20.1922 19.0421 20.1172 19.1172C20.0421 19.1922 20 19.2939 20 19.4V39.4C20 39.5591 20.0632 39.7117 20.1757 39.8243C20.2883 39.9368 20.4409 40 20.6 40H25V35.2C25 35.09 25.09 35 25.2 35H27.8C27.91 35 28 35.09 28 35.2ZM23.5 32V26H25.5V32H23.5ZM27.5 26V32H29.5V26H27.5ZM23.5 24V21H25.5V24H23.5ZM27.5 21V24H29.5V21H27.5ZM35 34V33H38V34H35Z" fill="white"/>
<defs>
<filter id="filter0_f_1_4" x="0" y="0" width="58" height="64" filterUnits="userSpaceOnUse" color-interpolation-filters="sRGB">
<feFlood flood-opacity="0" result="BackgroundImageFix"/>
<feBlend mode="normal" in="SourceGraphic" in2="BackgroundImageFix" result="shape"/>
<feGaussianBlur stdDeviation="3" result="effect1_foregroundBlur_1_4"/>
</filter>
</defs>
</svg>
