<svg width="40" height="40" viewBox="0 0 40 40" fill="none" xmlns="http://www.w3.org/2000/svg">
<path d="M2.22223 34C1.5926 34 1.06519 33.768 0.640008 33.304C0.214823 32.84 0.00148914 32.2664 7.66282e-06 31.5833C-0.00147382 30.9002 0.21186 30.3266 0.640008 29.8626C1.06816 29.3986 1.59556 29.1666 2.22223 29.1666H37.7778C38.4074 29.1666 38.9355 29.3986 39.3622 29.8626C39.7889 30.3266 40.0015 30.9002 40 31.5833C39.9985 32.2664 39.7852 32.8408 39.36 33.3064C38.9348 33.772 38.4074 34.0032 37.7778 34H2.22223ZM2.22223 21.9166C1.5926 21.9166 1.06519 21.6846 0.640008 21.2206C0.214823 20.7566 0.00148914 20.1831 7.66282e-06 19.5C-0.00147382 18.8169 0.21186 18.2433 0.640008 17.7793C1.06816 17.3153 1.59556 17.0833 2.22223 17.0833H37.7778C38.4074 17.0833 38.9355 17.3153 39.3622 17.7793C39.7889 18.2433 40.0015 18.8169 40 19.5C39.9985 20.1831 39.7852 20.7575 39.36 21.2231C38.9348 21.6887 38.4074 21.9199 37.7778 21.9166H2.22223ZM2.22223 9.83333C1.5926 9.83333 1.06519 9.60133 0.640008 9.13733C0.214823 8.67333 0.00148914 8.09977 7.66282e-06 7.41666C-0.00147382 6.73355 0.21186 6.16 0.640008 5.696C1.06816 5.232 1.59556 5 2.22223 5H37.7778C38.4074 5 38.9355 5.232 39.3622 5.696C39.7889 6.16 40.0015 6.73355 40 7.41666C39.9985 8.09977 39.7852 8.67413 39.36 9.13974C38.9348 9.60536 38.4074 9.83655 37.7778 9.83333H2.22223Z" fill="#06ACED"/>
</svg>
