<svg width="45" height="32" viewBox="0 0 45 32" fill="none" xmlns="http://www.w3.org/2000/svg">
<g clip-path="url(#clip0_181_2486)">
<path d="M43.8136 4.91347C43.5567 3.96377 43.0554 3.09797 42.3597 2.40227C41.664 1.70657 40.7982 1.20524 39.8486 0.948216C36.3718 0 22.3788 0 22.3788 0C22.3788 0 8.38522 0.0287019 4.90843 0.976918C3.95872 1.23396 3.09292 1.73531 2.39725 2.43104C1.70158 3.12678 1.20031 3.99262 0.943349 4.94234C-0.108299 11.1199 -0.516252 20.5331 0.972226 26.4636C1.22921 27.4133 1.73049 28.2791 2.42617 28.9748C3.12184 29.6705 3.98762 30.1718 4.9373 30.4288C8.41409 31.3771 22.4074 31.3771 22.4074 31.3771C22.4074 31.3771 36.4005 31.3771 39.8771 30.4288C40.8268 30.1718 41.6926 29.6705 42.3883 28.9748C43.084 28.2791 43.5853 27.4133 43.8423 26.4636C44.9516 20.2773 45.2934 10.8698 43.8136 4.91347Z" fill="#FF0000"/>
<path d="M17.9258 22.4134L29.5344 15.6896L17.9258 8.96571V22.4134Z" fill="white"/>
</g>
<defs>
<clipPath id="clip0_181_2486">
<rect width="44.8031" height="31.5022" fill="white"/>
</clipPath>
</defs>
</svg>
