<svg width="24" height="24" viewBox="0 0 24 24" fill="none" xmlns="http://www.w3.org/2000/svg">
<g clip-path="url(#clip0_4396_25112)">
<path d="M10.7335 5.076C13.0629 4.7984 15.4191 5.29082 17.4424 6.47805C19.4656 7.66528 21.0447 9.48208 21.9385 11.651C22.0218 11.8755 22.0218 12.1225 21.9385 12.347C21.571 13.238 21.0853 14.0755 20.4945 14.837M2.00051 2L22.0005 22M6.00049 6.83047C4.24474 8.01152 2.87257 9.68755 2.06251 11.652C1.97916 11.8765 1.97916 12.1235 2.06251 12.348C2.65026 13.7734 3.53773 15.0556 4.66472 16.1077C5.7917 17.1599 7.13182 17.9573 8.59414 18.4459C10.0565 18.9345 11.6068 19.1028 13.1399 18.9394C14.4909 18.7954 15.8006 18.3968 17.0005 17.7665" stroke="#C9C6C6" stroke-width="2" stroke-linecap="square"/>
</g>
<defs>
<clipPath id="clip0_4396_25112">
<rect width="24" height="24" fill="white"/>
</clipPath>
</defs>
</svg>
