<svg width="23" height="22" viewBox="0 0 23 22" fill="none" xmlns="http://www.w3.org/2000/svg">
<path d="M21.2973 0.502176C21.0133 0.523589 20.7345 0.59131 20.4717 0.702743H20.4682C20.216 0.804375 19.0171 1.31704 17.1944 2.09412L10.6626 4.89037C5.97574 6.89604 1.36849 8.87113 1.36849 8.87113L1.42335 8.84954C1.42335 8.84954 1.1057 8.95567 0.773889 9.18682C0.568437 9.31881 0.391934 9.4924 0.255386 9.69678C0.0925789 9.93962 -0.0383742 10.3111 0.0102908 10.6951C0.0899245 11.3445 0.504019 11.7339 0.801319 11.9489C1.10216 12.1665 1.38884 12.2682 1.38884 12.2682H1.39592L5.71649 13.7477C5.91026 14.38 7.0331 18.1323 7.30297 18.9966C7.46223 19.5129 7.61708 19.8358 7.81085 20.0822C7.90346 20.2081 8.01524 20.3133 8.1462 20.3979C8.21422 20.4394 8.28743 20.4715 8.36386 20.4932L8.31962 20.4824C8.33289 20.486 8.34351 20.4968 8.35325 20.5004C8.38864 20.5103 8.41253 20.5139 8.45765 20.5211C9.14162 20.7316 9.69109 20.2998 9.69109 20.2998L9.72206 20.2747L12.273 17.9137L16.5484 21.2478L16.6458 21.2901C17.5368 21.6876 18.4393 21.4664 18.9162 21.076C19.3967 20.683 19.5834 20.1802 19.5834 20.1802L19.6143 20.0993L22.9182 2.89459C23.012 2.47007 23.0359 2.07253 22.9324 1.68669C22.8262 1.29592 22.5796 0.959881 22.2414 0.745015C21.9578 0.569631 21.6288 0.485019 21.2973 0.502176ZM21.2079 2.34595C21.2044 2.40262 21.215 2.39632 21.1902 2.50515V2.51504L17.9173 19.5408C17.9031 19.565 17.8792 19.6181 17.8137 19.6712C17.7447 19.7269 17.6899 19.762 17.4023 19.646L12.173 15.5708L9.0142 18.4974L9.67782 14.1893L18.2216 6.09467C18.5738 5.76189 18.4561 5.69173 18.4561 5.69173C18.4809 5.2834 17.9243 5.57211 17.9243 5.57211L7.15078 12.3563L7.14724 12.3383L1.98344 10.571V10.5674L1.97016 10.5647L1.99671 10.5539L2.02502 10.5395L2.05245 10.5296C2.05245 10.5296 6.66324 8.55454 11.3501 6.54887C13.6967 5.54423 16.0609 4.5324 17.8792 3.75172C18.9576 3.29033 20.0371 2.83163 21.1176 2.37563C21.1902 2.34685 21.1557 2.34595 21.2079 2.34595Z" fill="#E28E41"/>
</svg>
