<svg width="48" height="48" viewBox="0 0 48 48" fill="none" xmlns="http://www.w3.org/2000/svg">
<path d="M10.875 27.375C10.875 17.9756 17.7915 10.1921 26.8125 8.835C25.8815 8.69505 24.9414 8.62485 24 8.625C13.6447 8.625 5.25 17.0197 5.25 27.375C5.25 37.7303 13.6447 46.125 24 46.125C24.956 46.125 25.8951 46.053 26.8125 45.915C17.7914 44.5579 10.875 36.7744 10.875 27.375Z" fill="#CEE1F2"/>
<path d="M11.25 29.25C12.2855 29.25 13.125 28.4105 13.125 27.375C13.125 26.3395 12.2855 25.5 11.25 25.5C10.2145 25.5 9.375 26.3395 9.375 27.375C9.375 28.4105 10.2145 29.25 11.25 29.25Z" fill="#06ACED"/>
<path d="M36 29.25C37.0355 29.25 37.875 28.4105 37.875 27.375C37.875 26.3395 37.0355 25.5 36 25.5C34.9645 25.5 34.125 26.3395 34.125 27.375C34.125 28.4105 34.9645 29.25 36 29.25Z" fill="#06ACED"/>
<path d="M23.625 41.625C24.6605 41.625 25.5 40.7855 25.5 39.75C25.5 38.7145 24.6605 37.875 23.625 37.875C22.5895 37.875 21.75 38.7145 21.75 39.75C21.75 40.7855 22.5895 41.625 23.625 41.625Z" fill="#06ACED"/>
<path d="M23.625 16.875C24.6605 16.875 25.5 16.0355 25.5 15C25.5 13.9645 24.6605 13.125 23.625 13.125C22.5895 13.125 21.75 13.9645 21.75 15C21.75 16.0355 22.5895 16.875 23.625 16.875Z" fill="#06ACED"/>
<path d="M3.375 27.375C3.375 38.7739 12.5996 48 24 48C35.3989 48 44.625 38.7754 44.625 27.375C44.625 15.9761 35.4004 6.75 24 6.75C12.6011 6.75 3.375 15.9746 3.375 27.375ZM24 10.5C33.3049 10.5 40.875 18.0701 40.875 27.375C40.875 36.6799 33.3049 44.25 24 44.25C14.6951 44.25 7.125 36.6799 7.125 27.375C7.125 18.0701 14.6951 10.5 24 10.5ZM27.75 3.75C28.7856 3.75 29.625 2.91056 29.625 1.875C29.625 0.839438 28.7856 0 27.75 0H20.25C19.2144 0 18.375 0.839438 18.375 1.875C18.375 2.91056 19.2144 3.75 20.25 3.75H27.75Z" fill="#06ACED"/>
<path d="M31.9871 28.2442L30.6612 24.2665C30.3873 23.4451 29.9174 22.6859 29.3025 22.071C28.6874 21.4559 27.9283 20.9861 27.1068 20.7123L23.1294 19.3865C21.0935 18.7079 18.8867 19.2287 17.3701 20.7453C15.8535 22.2619 15.3329 24.4687 16.0115 26.5045L17.3373 30.4821C17.6112 31.3035 18.0809 32.0627 18.6959 32.6777C19.311 33.2928 20.0702 33.7626 20.8916 34.0364L24.8692 35.3622C26.9081 36.0419 29.1145 35.5175 30.6283 34.0036C32.145 32.4869 32.6656 30.2801 31.9871 28.2442ZM27.9767 31.3519C27.4709 31.8577 26.7345 32.0312 26.055 31.8046L22.0776 30.4788C21.8017 30.3868 21.5562 30.2345 21.3477 30.026C21.1392 29.8175 20.9868 29.5718 20.8949 29.296L19.5691 25.3187C19.3425 24.639 19.5161 23.9027 20.0219 23.3968C20.3809 23.0378 20.8559 22.8462 21.3446 22.8462C21.5444 22.8462 21.7465 22.8783 21.9436 22.944L25.921 24.2698C26.1965 24.3615 26.4466 24.5167 26.6511 24.7228C26.857 24.9272 27.0121 25.1772 27.1038 25.4525L28.4296 29.43C28.656 30.1096 28.4825 30.846 27.9767 31.3519Z" fill="#E28E41"/>
</svg>
