<svg width="48" height="48" viewBox="0 0 48 48" fill="none" xmlns="http://www.w3.org/2000/svg">
<g clip-path="url(#clip0_325_12961)">
<path d="M11.7407 23.9805L11.7421 23.983L11.7507 23.998C11.7475 23.9921 11.7441 23.9863 11.7407 23.9805Z" fill="#CEE1F2"/>
<path d="M11.7503 23.9976L8.50069 18.3701C7.86413 17.2681 7.5 15.9891 7.5 14.625C7.5 11.4778 9.43941 8.78513 12.1875 7.67222C11.294 7.31019 10.339 7.12437 9.375 7.125C5.23284 7.125 1.875 10.4828 1.875 14.625C1.875 15.9891 2.23912 17.2681 2.87569 18.3702L6.11672 23.9827L6.11531 23.9801L6.12534 23.9976C6.77334 25.1198 7.98591 25.875 9.375 25.875C10.4953 25.875 11.5004 25.3833 12.1875 24.6045C12.022 24.4172 11.8755 24.2139 11.7503 23.9976ZM6.03891 23.8478C5.94741 23.6894 5.98706 23.758 6.03891 23.8478V23.8478Z" fill="#CEE1F2"/>
<path d="M11.6641 23.8487C11.5726 23.6903 11.6123 23.7589 11.6641 23.8487V23.8487ZM11.7319 23.9663L11.7031 23.9164C11.714 23.9351 11.7239 23.9524 11.7319 23.9663Z" fill="#CEE1F2"/>
<path d="M12.6247 23.9976L15.8743 18.3701C16.5109 17.2681 16.875 15.9891 16.875 14.625C16.875 10.4828 13.5172 7.125 9.375 7.125C5.23284 7.125 1.875 10.4828 1.875 14.625C1.875 15.9891 2.23912 17.2681 2.87569 18.3702L6.12534 23.9977C6.77334 25.1198 7.98591 25.875 9.375 25.875C10.7641 25.875 11.9767 25.1198 12.6247 23.9976Z" stroke="#E28E41" stroke-width="4" stroke-miterlimit="10" stroke-linecap="round" stroke-linejoin="round"/>
<path d="M41.8747 23.9976L45.1243 18.3701C45.7609 17.2681 46.125 15.9891 46.125 14.625C46.125 10.4828 42.7672 7.125 38.625 7.125C34.4828 7.125 31.125 10.4828 31.125 14.625C31.125 15.9891 31.4891 17.2681 32.1257 18.3702L35.3753 23.9977C36.0233 25.1198 37.2359 25.875 38.625 25.875C40.0141 25.875 41.2267 25.1198 41.8747 23.9976Z" stroke="#06ACED" stroke-width="4" stroke-miterlimit="10" stroke-linecap="round" stroke-linejoin="round"/>
<path d="M9.375 40.875C11.4461 40.875 13.125 39.1961 13.125 37.125C13.125 35.0539 11.4461 33.375 9.375 33.375C7.30393 33.375 5.625 35.0539 5.625 37.125C5.625 39.1961 7.30393 40.875 9.375 40.875Z" stroke="#E28E41" stroke-width="4" stroke-miterlimit="10" stroke-linecap="round" stroke-linejoin="round"/>
<path d="M38.625 40.875C40.6961 40.875 42.375 39.1961 42.375 37.125C42.375 35.0539 40.6961 33.375 38.625 33.375C36.5539 33.375 34.875 35.0539 34.875 37.125C34.875 39.1961 36.5539 40.875 38.625 40.875Z" stroke="#E28E41" stroke-width="4" stroke-miterlimit="10" stroke-linecap="round" stroke-linejoin="round"/>
<path d="M13.125 37.125H27.375" stroke="#E28E41" stroke-width="4" stroke-miterlimit="10" stroke-linecap="round" stroke-linejoin="round"/>
</g>
<defs>
<clipPath id="clip0_325_12961">
<rect width="48" height="48" fill="white"/>
</clipPath>
</defs>
</svg>
