<svg width="106" height="67" viewBox="0 0 106 67" fill="none" xmlns="http://www.w3.org/2000/svg">
<path d="M106 53.719C101.933 57.2589 98.3007 61.3924 93.7989 64.3382C86.4557 69.1439 77.4986 67.1171 71.3497 60.8645L52.6095 41.9088L32.5028 62.651C25.1822 68.3082 16.1051 68.2086 8.97967 62.1546L0 53.7186L5.56371 47.9625L12.9817 54.5126C18.6429 59.7728 23.9135 59.6733 29.0868 54.0163L52.3534 29.9919L77.1088 54.7112C81.8916 59.4749 86.9671 59.5743 92.0426 55.0092L99.7537 47.8635L106 53.7191L106 53.719Z" fill="white"/>
<path d="M24.403 41.5109L17.9609 35.2583L37.4821 14.3176C45.6363 6.02645 57.3051 3.79398 66.2759 12.3328L88.4326 35.1592L82.1858 41.9078L60.8099 20.4708C56.0271 15.6075 50.5612 15.4092 45.5835 20.0738L24.4029 41.5109H24.403Z" fill="white"/>
<path fill-rule="evenodd" clip-rule="evenodd" d="M84.0865 0C88.3068 0 91.7277 3.47819 91.7277 7.76944C91.7277 12.0605 88.3069 15.5389 84.0865 15.5389C79.8663 15.5389 76.4453 12.0606 76.4453 7.76944C76.4453 3.47828 79.8662 0 84.0865 0Z" fill="white"/>
</svg>
