<svg width="80" height="65" viewBox="0 0 80 65" fill="none" xmlns="http://www.w3.org/2000/svg">
<path d="M74.3857 34.717C71.7483 37.0047 69.3929 39.6761 66.4734 41.5799C61.7113 44.6857 55.9026 43.3758 51.915 39.335L39.762 27.0845L26.7227 40.4895C21.9753 44.1455 16.0887 44.0812 11.4679 40.1687L5.64453 34.7168L9.25261 30.9968L14.0632 35.2299C17.7345 38.6294 21.1525 38.5651 24.5074 34.9091L39.5959 19.383L55.6498 35.3582C58.7515 38.4369 62.043 38.5011 65.3344 35.5508L70.3351 30.9328L74.3858 34.7171L74.3857 34.717Z" fill="#06ACED"/>
<path d="M21.4707 26.8283L17.293 22.7874L29.9525 9.2541C35.2405 3.89581 42.8078 2.45303 48.6253 7.97139L62.994 22.7234L58.943 27.0848L45.0807 13.2307C41.979 10.0878 38.4344 9.95955 35.2063 12.9742L21.4706 26.8283H21.4707Z" fill="#06ACED"/>
<path fill-rule="evenodd" clip-rule="evenodd" d="M60.1741 0C62.911 0 65.1294 2.24785 65.1294 5.02114C65.1294 7.79432 62.911 10.0423 60.1741 10.0423C57.4372 10.0423 55.2188 7.79438 55.2188 5.02114C55.2188 2.2479 57.4372 0 60.1741 0Z" fill="#E28E41"/>
<path d="M0.389673 51.5003H5.69624C5.95593 51.5003 6.08591 51.632 6.08591 51.8952V52.8163C6.08591 53.0671 5.95593 53.1924 5.69624 53.1924H3.95212V64.4543C3.95212 64.7175 3.82213 64.8492 3.56244 64.8492H2.52347C2.26378 64.8492 2.1338 64.7175 2.1338 64.4543V53.1924H0.389673C0.129699 53.1924 0 53.067 0 52.8163V51.8952C0 51.632 0.129699 51.5003 0.389673 51.5003ZM14.0224 51.3498C15.0863 51.3498 15.8842 51.6758 16.4161 52.3277C16.9478 52.9794 17.2138 53.9068 17.2138 55.1102V61.2394C17.2138 62.4428 16.9478 63.3703 16.4161 64.0219C15.8842 64.6738 15.0863 64.9997 14.0224 64.9997C12.9711 64.9997 12.1794 64.6738 11.6474 64.0219C11.1155 63.3702 10.8495 62.4428 10.8495 61.2394V55.1102C10.8495 53.9068 11.1155 52.9793 11.6474 52.3277C12.1794 51.6758 12.971 51.3498 14.0224 51.3498ZM15.0708 53.6156C14.8543 53.2708 14.5049 53.0985 14.0224 53.0985C13.5402 53.0985 13.1937 53.2708 12.9834 53.6156C12.7731 53.9601 12.668 54.5086 12.668 55.2607V61.0888C12.668 61.8409 12.7731 62.3894 12.9834 62.734C13.1937 63.0787 13.5402 63.251 14.0224 63.251C14.5049 63.251 14.8543 63.0787 15.0708 62.734C15.2874 62.3894 15.3957 61.8409 15.3957 61.0888V55.2607C15.3957 54.5086 15.2874 53.9601 15.0708 53.6156ZM23.2395 51.5003H24.2785C24.5382 51.5003 24.6682 51.632 24.6682 51.8952V61.3146C24.6682 62.054 24.7639 62.5617 24.9559 62.8375C25.1476 63.1132 25.4598 63.251 25.8927 63.251C26.3257 63.251 26.638 63.1132 26.8297 62.8375C27.0214 62.5617 27.1173 62.054 27.1173 61.3146L27.0802 51.8952C27.0802 51.632 27.2102 51.5003 27.4699 51.5003H28.5275C28.7749 51.5003 28.8986 51.632 28.8986 51.8952L28.9357 61.4837C28.9357 63.8276 27.9213 64.9997 25.8926 64.9997C23.8639 64.9997 22.8497 63.8276 22.8497 61.4837V51.8952C22.8497 51.632 22.9797 51.5003 23.2394 51.5003H23.2395ZM35.1098 51.5003H37.5219C39.5876 51.5003 40.6204 52.6785 40.6204 55.035V56.652C40.6204 58.3564 40.039 59.447 38.8763 59.9234L40.5833 64.3979C40.6329 64.5233 40.6329 64.6298 40.5833 64.7175C40.5339 64.8052 40.4596 64.8492 40.3607 64.8492H39.1177C38.932 64.8492 38.8083 64.7615 38.7466 64.586L37.0765 60.1678H36.5386V64.4544C36.5386 64.7175 36.4086 64.8492 36.1489 64.8492H35.1099C34.8499 64.8492 34.7202 64.7175 34.7202 64.4544V51.8952C34.7202 51.6321 34.8499 51.5004 35.1099 51.5004L35.1098 51.5003ZM36.5385 53.2112V58.4756H37.4104C37.9052 58.4756 38.2609 58.3188 38.4775 58.0056C38.694 57.6921 38.802 57.1909 38.802 56.5013V55.1666C38.802 54.477 38.694 53.9788 38.4775 53.6716C38.2609 53.3648 37.9052 53.2111 37.4104 53.2111H36.5385V53.2112ZM46.5162 51.5003H47.5552C47.8148 51.5003 47.9448 51.632 47.9448 51.8952V64.4543C47.9448 64.7175 47.8148 64.8492 47.5552 64.8492H46.5162C46.2563 64.8492 46.1265 64.7175 46.1265 64.4543V51.8952C46.1265 51.632 46.2563 51.5003 46.5162 51.5003ZM56.2155 51.3498C58.0462 51.3498 58.9615 52.4154 58.9615 54.546V56.5767C58.9615 56.8398 58.8318 56.9716 58.5719 56.9716H57.5329C57.2732 56.9716 57.1432 56.8398 57.1432 56.5767V54.7341C57.1432 54.1575 57.0691 53.747 56.9206 53.5027C56.7721 53.2583 56.531 53.1359 56.197 53.1359C55.863 53.1359 55.6124 53.252 55.4456 53.4839C55.2785 53.7157 55.195 54.101 55.195 54.6401C55.195 55.2043 55.3311 55.7494 55.6033 56.2759C55.8753 56.8022 56.2032 57.2755 56.5866 57.6952C56.97 58.1153 57.3534 58.535 57.737 58.9551C58.1205 59.3748 58.4481 59.8449 58.7204 60.3651C58.9926 60.8853 59.1286 61.4273 59.1286 61.9914C59.1286 63.9969 58.1947 64.9997 56.3269 64.9997C54.3354 64.9997 53.3394 63.84 53.3394 61.5213V60.6754C53.3394 60.4247 53.4694 60.2994 53.7291 60.2994H54.7681C55.0278 60.2994 55.1578 60.4248 55.1578 60.6754V61.2205C55.1578 61.9474 55.2381 62.4615 55.399 62.7623C55.5598 63.0631 55.8566 63.2135 56.2897 63.2135C56.6608 63.2135 56.9237 63.1163 57.0782 62.9221C57.2328 62.7278 57.3102 62.4238 57.3102 62.0102C57.3102 61.609 57.1741 61.2017 56.9019 60.788C56.63 60.3744 56.302 59.9702 55.9186 59.5754C55.5352 59.1805 55.1516 58.7608 54.7682 58.3158C54.3848 57.8706 54.0569 57.3287 53.7849 56.6895C53.5126 56.0501 53.3767 55.3671 53.3767 54.64C53.3767 53.5996 53.6146 52.7914 54.0909 52.2148C54.5671 51.6381 55.2753 51.3498 56.2155 51.3498L56.2155 51.3498ZM64.0594 51.5003H69.366C69.6257 51.5003 69.7557 51.632 69.7557 51.8952V52.8163C69.7557 53.0671 69.6257 53.1924 69.366 53.1924H67.6219V64.4543C67.6219 64.7175 67.4919 64.8492 67.2322 64.8492H66.1932C65.9335 64.8492 65.8035 64.7175 65.8035 64.4543V53.1924H64.0594C63.7994 53.1924 63.6697 53.067 63.6697 52.8163V51.8952C63.6697 51.632 63.7994 51.5003 64.0594 51.5003ZM75.8183 51.5003H77.451C77.6861 51.5003 77.8221 51.6068 77.8592 51.8199L79.993 64.4355C80.0301 64.7114 79.9188 64.8492 79.6591 64.8492H78.6015C78.354 64.8492 78.2118 64.7175 78.1747 64.4543L77.7479 61.8598H75.4658L75.0576 64.4543C75.0205 64.7175 74.8781 64.8492 74.6308 64.8492H73.6103C73.3506 64.8492 73.2392 64.7114 73.2763 64.4355L75.4101 51.8199C75.4472 51.6068 75.5833 51.5003 75.8184 51.5003H75.8183ZM76.6162 53.7753L75.7069 60.2242H77.5067L76.6162 53.7753Z" fill="#E28E41"/>
</svg>
